:SAMPLES-PER-SECOND 30
:FULLY-SPECIFIED
:DEGREES
96
root  -7.09492 39.4436 8.22667 173.231 -83.7678 -176.579
RightUpLeg  -13.0473 -19.1855 -9.63211
RightLeg  25.5057 -6.64787 -3.66038
RightFoot  -4.95096 -0.49125 8.29056
RightToes  -2.9104e-010 0 -3.6325e-017
Spine  21.4327 3.22413 12.7013
Spine1  13.7942 10.9551 -15.9009
HEad  -11.0739 -19.621 16.3664
LeftShoulder1  8.36885 -14.5845 -40.0161
LeftArm  -12.6181 6.10847 -27.8537
LeftForeArm  46.6741 -49.3087 -9.55183
LeftHand  -0.244104 0.0205437 5.32207
RightShoulder  2.8094 8.43307 16.9056
RightArm  -24.1131 66.749 32.8654
RightForeArm  -31.195 30.7315 8.19756
RightHand  -3.86868 13.0687 -24.32
LeftUpLeg  -19.3478 14.5305 -0.202239
LeftLeg  18.0518 -8.37868 -2.76337
LeftFoot  6.79225 -0.62647 3.66549
LeftToes  -1.62803e-010 -2.57217e-011 -2.5681e-011
97
root  -7.43463 39.5324 8.06007 178.587 -83.1401 178.469
RightUpLeg  -13.5595 -18.7669 -9.47873
RightLeg  23.1652 -6.61987 -3.31397
RightFoot  -2.25697 -0.453466 5.45853
RightToes  -2.9104e-010 0 -3.6325e-017
Spine  21.0177 3.24714 12.0995
Spine1  14.2699 10.6911 -15.2601
HEad  -11.18 -19.6856 16.6642
LeftShoulder1  8.36008 -14.4714 -40.2457
LeftArm  -13.3844 5.82654 -27.8048
LeftForeArm  47.633 -51.3382 -10.3173
LeftHand  -0.244104 0.0205437 5.32207
RightShoulder  2.97424 8.63592 17.9515
RightArm  -22.9128 65.0942 32.5276
RightForeArm  -28.6515 36.3394 9.72393
RightHand  -3.44177 11.8137 -23.2595
LeftUpLeg  -18.7749 14.1868 -0.311509
LeftLeg  17.4138 -7.32877 -2.3781
LeftFoot  6.45485 -0.558159 3.31385
LeftToes  -1.62803e-010 -2.57217e-011 -2.5681e-011
98
root  -7.70435 39.6342 7.8905 -178.159 -81.7598 175.323
RightUpLeg  -13.8385 -16.3935 -9.44271
RightLeg  23.3733 -7.72591 -3.86156
RightFoot  -1.58582 -0.363663 4.09742
RightToes  -2.9104e-010 0 -3.6325e-017
Spine  20.9505 3.21284 11.603
Spine1  14.7238 10.4847 -14.7904
HEad  -11.2685 -19.1361 16.6741
LeftShoulder1  8.39437 -14.3531 -40.7176
LeftArm  -14.2668 5.70787 -27.4801
LeftForeArm  48.4055 -52.3704 -10.7145
LeftHand  -0.244104 0.0205437 5.32207
RightShoulder  3.16983 8.92292 19.04
RightArm  -21.2408 63.6077 32.7767
RightForeArm  -26.5032 41.7503 11.4767
RightHand  -3.03159 10.4999 -22.2204
LeftUpLeg  -17.773 14.1786 -0.0624498
LeftLeg  16.5631 -6.04055 -2.04261
LeftFoot  6.18453 -0.491285 2.942
LeftToes  -1.62803e-010 -2.57217e-011 -2.5681e-011
99
root  -7.9392 39.7394 7.7193 -176.254 -79.9505 173.449
RightUpLeg  -13.5172 -14.6683 -9.56011
RightLeg  22.9493 -7.83041 -3.84311
RightFoot  -1.79528 -0.368907 4.18784
RightToes  -2.9104e-010 0 -3.6325e-017
Spine  20.8761 3.01138 11.096
Spine1  15.1946 10.2172 -14.665
HEad  -11.0565 -18.1046 16.5733
LeftShoulder1  8.42043 -14.2449 -41.1253
LeftArm  -15.1007 5.87322 -27.1009
LeftForeArm  48.3905 -52.2793 -10.6777
LeftHand  -0.244104 0.0205437 5.32207
RightShoulder  3.38193 9.25075 20.1227
RightArm  -19.0703 62.1399 33.7611
RightForeArm  -24.4399 46.6154 13.3687
RightHand  -2.63504 9.18196 -21.0997
LeftUpLeg  -16.6253 14.1375 0.414899
LeftLeg  15.6978 -4.31354 -1.81607
LeftFoot  5.7186 -0.409991 2.50124
LeftToes  -1.62803e-010 -2.57217e-011 -2.5681e-011
100
root  -8.17167 39.8474 7.56606 -175.103 -77.8958 172.492
RightUpLeg  -13.2809 -15.0154 -9.61568
RightLeg  21.5725 -5.73514 -2.71322
RightFoot  -1.46593 -0.351488 3.96209
RightToes  -2.9104e-010 0 -3.6325e-017
Spine  20.4531 2.70866 10.5841
Spine1  15.5352 9.76993 -14.5339
HEad  -10.3721 -16.7293 16.2583
LeftShoulder1  8.42649 -14.1348 -41.4353
LeftArm  -15.6997 6.53376 -26.7505
LeftForeArm  47.479 -51.4252 -10.3687
LeftHand  -0.244104 0.0205437 5.32207
RightShoulder  3.59908 9.54361 21.2656
RightArm  -16.2962 60.5826 35.1637
RightForeArm  -22.0666 50.8105 15.3151
RightHand  -2.27146 7.88399 -19.9995
LeftUpLeg  -15.5258 13.7635 0.98239
LeftLeg  14.7127 -2.04366 -1.63053
LeftFoot  5.35686 -0.32515 1.99445
LeftToes  -1.62803e-010 -2.57217e-011 -2.5681e-011
101
root  -8.40264 39.9516 7.42574 -174.433 -75.4502 172.183
RightUpLeg  -13.5291 -16.1168 -9.48472
RightLeg  20.4482 -2.68678 -1.32024
RightFoot  -0.824459 -0.285011 3.03246
RightToes  -2.9104e-010 0 -3.6325e-017
Spine  19.7466 2.48448 9.98266
Spine1  15.7551 9.25351 -14.1436
HEad  -9.50324 -15.0422 15.6796
LeftShoulder1  8.46373 -14.0655 -41.8095
LeftArm  -15.9455 7.65241 -26.3795
LeftForeArm  46.3116 -50.3056 -9.97952
LeftHand  -0.244104 0.0205437 5.32207
RightShoulder  3.81769 9.77138 22.513
RightArm  -13.2709 59.0541 36.2971
RightForeArm  -19.3997 54.3379 17.255
RightHand  -1.95724 6.70174 -18.9437
LeftUpLeg  -14.5243 13.1982 1.60152
LeftLeg  13.6972 0.686853 -1.43595
LeftFoot  5.14473 -0.237109 1.42115
LeftToes  -1.62803e-010 -2.57217e-011 -2.5681e-011
102
root  -8.61909 40.0454 7.28144 -174.376 -72.4242 172.485
RightUpLeg  -13.9081 -15.8787 -9.17621
RightLeg  19.6666 -0.495022 -0.409145
RightFoot  -0.521901 -0.236937 2.46107
RightToes  -2.9104e-010 0 -3.6325e-017
Spine  19.066 2.38076 9.3282
Spine1  15.9684 8.84482 -13.6942
HEad  -8.85325 -12.9577 15.0304
LeftShoulder1  8.56214 -14.0831 -42.2856
LeftArm  -15.7989 8.84472 -25.9612
LeftForeArm  45.2044 -48.762 -9.44344
LeftHand  -0.244104 0.0205437 5.32207
RightShoulder  4.02114 9.95194 23.703
RightArm  -10.415 57.6856 36.9549
RightForeArm  -16.844 57.2653 19.164
RightHand  -1.6977 5.75107 -17.8576
LeftUpLeg  -13.5523 12.813 2.37122
LeftLeg  12.9608 3.76262 -1.2315
LeftFoot  4.73229 -0.130385 0.718298
LeftToes  -1.62803e-010 -2.57217e-011 -2.5681e-011
